<svg width="31" height="31" viewBox="0 0 31 31" fill="none" xmlns="http://www.w3.org/2000/svg">
<path d="M11.625 2.58333C6.64673 2.58333 2.58334 6.64672 2.58334 11.625C2.58334 16.6033 6.64673 20.6667 11.625 20.6667C13.8828 20.6667 15.9456 19.8245 17.5334 18.4466L18.0833 18.9966V20.6667L25.8333 28.4167L28.4167 25.8333L20.6667 18.0833H18.9966L18.4466 17.5334C19.8245 15.9456 20.6667 13.8828 20.6667 11.625C20.6667 6.64672 16.6033 2.58333 11.625 2.58333ZM11.625 5.16666C15.2071 5.16666 18.0833 8.04286 18.0833 11.625C18.0833 15.2071 15.2071 18.0833 11.625 18.0833C8.04286 18.0833 5.16667 15.2071 5.16667 11.625C5.16667 8.04286 8.04286 5.16666 11.625 5.16666Z" fill="#685C5C"/>
</svg>
